<mxfile host="app.diagrams.net" modified="2024-04-24T17:00:00.000Z" agent="Mozilla/5.0" version="21.7.5" etag="request-flow-simple-etag" type="device">
  <diagram id="request-flow-simple" name="Обработка запроса (упрощённо)">
    <mxGraphModel dx="1200" dy="800" grid="1" gridSize="10" guides="1" tooltips="1" connect="1" arrows="1" fold="1" page="1" pageScale="1" pageWidth="827" pageHeight="1169" math="0" shadow="0">
      <root>
        <mxCell id="0"/>
        <mxCell id="1" parent="0"/>
        
        <!-- Пользовательский запрос -->
        <mxCell id="req" value="Пользовательский запрос" style="rounded=1;whiteSpace=wrap;html=1;fillColor=#E3F2FD;strokeColor=#1976D2;" vertex="1" parent="1">
          <mxGeometry x="120" y="40" width="200" height="50" as="geometry"/>
        </mxCell>
        <!-- Валидация -->
        <mxCell id="val" value="Валидация и определение типа" style="rounded=1;whiteSpace=wrap;html=1;fillColor=#FFFDE7;strokeColor=#FBC02D;" vertex="1" parent="1">
          <mxGeometry x="120" y="110" width="200" height="50" as="geometry"/>
        </mxCell>
        <!-- Кэш -->
        <mxCell id="cache" value="Проверка кэша (Redis)" style="rounded=1;whiteSpace=wrap;html=1;fillColor=#E8F5E9;strokeColor=#388E3C;" vertex="1" parent="1">
          <mxGeometry x="120" y="180" width="200" height="50" as="geometry"/>
        </mxCell>
        <!-- Решение -->
        <mxCell id="decision" value="Данные найдены?" style="rhombus;whiteSpace=wrap;html=1;fillColor=#E1F5FE;strokeColor=#0288D1;" vertex="1" parent="1">
          <mxGeometry x="170" y="250" width="100" height="60" as="geometry"/>
        </mxCell>
        <!-- БД -->
        <mxCell id="db" value="Запрос к БД (PostgreSQL)" style="rounded=1;whiteSpace=wrap;html=1;fillColor=#FFEBEE;strokeColor=#C62828;" vertex="1" parent="1">
          <mxGeometry x="120" y="340" width="200" height="50" as="geometry"/>
        </mxCell>
        <!-- Обработка -->
        <mxCell id="proc" value="Обработка (кластеризация, маршрут...)" style="rounded=1;whiteSpace=wrap;html=1;fillColor=#E3F2FD;strokeColor=#1976D2;" vertex="1" parent="1">
          <mxGeometry x="120" y="410" width="200" height="50" as="geometry"/>
        </mxCell>
        <!-- Ответ -->
        <mxCell id="resp" value="Формирование и возврат ответа" style="rounded=1;whiteSpace=wrap;html=1;fillColor=#FFF3E0;strokeColor=#F57C00;" vertex="1" parent="1">
          <mxGeometry x="120" y="480" width="200" height="50" as="geometry"/>
        </mxCell>
        <!-- Стрелки -->
        <mxCell id="e1" style="edgeStyle=orthogonalEdgeStyle;endArrow=block;endFill=1;strokeColor=#1976D2;" edge="1" parent="1" source="req" target="val">
          <mxGeometry relative="1" as="geometry"/>
        </mxCell>
        <mxCell id="e2" style="edgeStyle=orthogonalEdgeStyle;endArrow=block;endFill=1;strokeColor=#388E3C;" edge="1" parent="1" source="val" target="cache">
          <mxGeometry relative="1" as="geometry"/>
        </mxCell>
        <mxCell id="e3" style="edgeStyle=orthogonalEdgeStyle;endArrow=block;endFill=1;strokeColor=#0288D1;" edge="1" parent="1" source="cache" target="decision">
          <mxGeometry relative="1" as="geometry"/>
        </mxCell>
        <mxCell id="e4" value="нет" style="edgeStyle=orthogonalEdgeStyle;endArrow=block;endFill=1;strokeColor=#C62828;" edge="1" parent="1" source="decision" target="db">
          <mxGeometry relative="1" as="geometry"/>
        </mxCell>
        <mxCell id="e5" value="да" style="edgeStyle=orthogonalEdgeStyle;endArrow=block;endFill=1;strokeColor=#388E3C;" edge="1" parent="1" source="decision" target="proc">
          <mxGeometry relative="1" as="geometry"/>
        </mxCell>
        <mxCell id="e6" style="edgeStyle=orthogonalEdgeStyle;endArrow=block;endFill=1;strokeColor=#1976D2;" edge="1" parent="1" source="db" target="proc">
          <mxGeometry relative="1" as="geometry"/>
        </mxCell>
        <mxCell id="e7" style="edgeStyle=orthogonalEdgeStyle;endArrow=block;endFill=1;strokeColor=#F57C00;" edge="1" parent="1" source="proc" target="resp">
          <mxGeometry relative="1" as="geometry"/>
        </mxCell>
      </root>
    </mxGraphModel>
  </diagram>
</mxfile> 